<mxfile host="app.diagrams.net" agent="Mozilla/5.0 (X11; Linux x86_64) AppleWebKit/537.36 (KHTML, like Gecko) Chrome/129.0.0.0 Safari/537.36" version="24.8.0">
  <diagram name="Page-1" id="PQ8E7qH_X9HhLw6GdQ46">
    <mxGraphModel dx="1368" dy="908" grid="1" gridSize="10" guides="1" tooltips="1" connect="1" arrows="1" fold="1" page="1" pageScale="1" pageWidth="1169" pageHeight="827" math="0" shadow="0">
      <root>
        <mxCell id="0" />
        <mxCell id="1" parent="0" />
        <mxCell id="aaUWFAEcgbaKU6TedSDt-4" value="Price" style="text;html=1;align=center;verticalAlign=middle;whiteSpace=wrap;rounded=0;" vertex="1" parent="1">
          <mxGeometry x="788" y="191" width="70" height="20" as="geometry" />
        </mxCell>
        <mxCell id="aaUWFAEcgbaKU6TedSDt-8" value="UserPredictions" style="text;html=1;align=center;verticalAlign=middle;whiteSpace=wrap;rounded=0;" vertex="1" parent="1">
          <mxGeometry x="798.5" y="331.5" width="70" height="20" as="geometry" />
        </mxCell>
        <mxCell id="aaUWFAEcgbaKU6TedSDt-10" value="UserScores" style="text;html=1;align=center;verticalAlign=middle;whiteSpace=wrap;rounded=0;" vertex="1" parent="1">
          <mxGeometry x="790.5" y="541" width="70" height="20" as="geometry" />
        </mxCell>
        <mxCell id="aaUWFAEcgbaKU6TedSDt-15" value="WebSocketConnections" style="text;html=1;align=center;verticalAlign=middle;whiteSpace=wrap;rounded=0;" vertex="1" parent="1">
          <mxGeometry x="793" y="691" width="70" height="20" as="geometry" />
        </mxCell>
        <mxCell id="aaUWFAEcgbaKU6TedSDt-64" style="edgeStyle=orthogonalEdgeStyle;rounded=0;orthogonalLoop=1;jettySize=auto;html=1;exitX=1;exitY=0.5;exitDx=0;exitDy=0;entryX=0;entryY=0.5;entryDx=0;entryDy=0;" edge="1" parent="1" source="aaUWFAEcgbaKU6TedSDt-17" target="aaUWFAEcgbaKU6TedSDt-53">
          <mxGeometry relative="1" as="geometry" />
        </mxCell>
        <UserObject label="&lt;b style=&quot;font-weight:normal;&quot; id=&quot;docs-internal-guid-b3e5f6c6-7fff-bafe-965e-08de49ae7b6a&quot;&gt;&lt;img width=&quot;48px;&quot; height=&quot;48px;&quot; src=&quot;https://lh7-rt.googleusercontent.com/slidesz/AGV_vUc_FQBTi1T54LS-GyTTXyXDhwIVa1MDt0QooNEt1XMVmrXSXtOL53smjEJN392AyZERbPHY94xblzUXqH1G_FyFITv38ZnS1wJKbkBE21BWkeFFQmUHQJPKyaQaPul9mG-f8xHV3-UThEhDX3paVEKU3C5fguZZ3xdnbXliQw=s2048?key=fMnLGsAR7HdY5qTKuxnaEQ&quot; alt=&quot;Stream resource icon for the Amazon DynamoDB service.&quot;&gt;&lt;/b&gt;" id="aaUWFAEcgbaKU6TedSDt-17">
          <mxCell style="text;whiteSpace=wrap;html=1;" vertex="1" parent="1">
            <mxGeometry x="901" y="271.5" width="50" height="70" as="geometry" />
          </mxCell>
        </UserObject>
        <mxCell id="aaUWFAEcgbaKU6TedSDt-65" style="edgeStyle=orthogonalEdgeStyle;rounded=0;orthogonalLoop=1;jettySize=auto;html=1;exitX=1;exitY=0.5;exitDx=0;exitDy=0;entryX=0;entryY=0.5;entryDx=0;entryDy=0;" edge="1" parent="1" source="aaUWFAEcgbaKU6TedSDt-18" target="aaUWFAEcgbaKU6TedSDt-57">
          <mxGeometry relative="1" as="geometry" />
        </mxCell>
        <UserObject label="&lt;b style=&quot;font-weight:normal;&quot; id=&quot;docs-internal-guid-b3e5f6c6-7fff-bafe-965e-08de49ae7b6a&quot;&gt;&lt;img width=&quot;48px;&quot; height=&quot;48px;&quot; src=&quot;https://lh7-rt.googleusercontent.com/slidesz/AGV_vUc_FQBTi1T54LS-GyTTXyXDhwIVa1MDt0QooNEt1XMVmrXSXtOL53smjEJN392AyZERbPHY94xblzUXqH1G_FyFITv38ZnS1wJKbkBE21BWkeFFQmUHQJPKyaQaPul9mG-f8xHV3-UThEhDX3paVEKU3C5fguZZ3xdnbXliQw=s2048?key=fMnLGsAR7HdY5qTKuxnaEQ&quot; alt=&quot;Stream resource icon for the Amazon DynamoDB service.&quot;&gt;&lt;/b&gt;" id="aaUWFAEcgbaKU6TedSDt-18">
          <mxCell style="text;whiteSpace=wrap;html=1;" vertex="1" parent="1">
            <mxGeometry x="901" y="481" width="50" height="70" as="geometry" />
          </mxCell>
        </UserObject>
        <mxCell id="aaUWFAEcgbaKU6TedSDt-83" style="edgeStyle=orthogonalEdgeStyle;rounded=0;orthogonalLoop=1;jettySize=auto;html=1;entryX=0;entryY=0.5;entryDx=0;entryDy=0;" edge="1" parent="1" source="aaUWFAEcgbaKU6TedSDt-19" target="aaUWFAEcgbaKU6TedSDt-37">
          <mxGeometry relative="1" as="geometry" />
        </mxCell>
        <UserObject label="&lt;b style=&quot;font-weight:normal;&quot; id=&quot;docs-internal-guid-9d704f38-7fff-0de2-2634-8abaaa2ed7f5&quot;&gt;&lt;img width=&quot;80px;&quot; height=&quot;80px;&quot; src=&quot;https://lh7-rt.googleusercontent.com/slidesz/AGV_vUeLjmgy9Fmabxe-e2c06NQ4-5ImWI8OKp05OLIJYSUQgfLiTHRcU59O94h2xbQljiV7oXwb5hYF-ufUYBP2S4lXE8RAavlcE-gln4PJhwirJczOosd1X9TpLNmrcNyjIFxDkl1rnvr6Bsd0jAuSa4qhUiqOrVe-bC7O8rKysg=s2048?key=fMnLGsAR7HdY5qTKuxnaEQ&quot; alt=&quot;Amazon API Gateway service icon.&quot;&gt;&lt;/b&gt;" id="aaUWFAEcgbaKU6TedSDt-19">
          <mxCell style="text;whiteSpace=wrap;html=1;" vertex="1" parent="1">
            <mxGeometry x="223" y="418.5" width="80" height="90" as="geometry" />
          </mxCell>
        </UserObject>
        <mxCell id="aaUWFAEcgbaKU6TedSDt-97" style="edgeStyle=orthogonalEdgeStyle;rounded=0;orthogonalLoop=1;jettySize=auto;html=1;exitX=1;exitY=0.5;exitDx=0;exitDy=0;" edge="1" parent="1" source="aaUWFAEcgbaKU6TedSDt-20" target="aaUWFAEcgbaKU6TedSDt-92">
          <mxGeometry relative="1" as="geometry" />
        </mxCell>
        <UserObject label="&lt;b style=&quot;font-weight:normal;&quot; id=&quot;docs-internal-guid-41e2e2aa-7fff-817b-e89c-840f88f79665&quot;&gt;&lt;img width=&quot;48px;&quot; height=&quot;48px;&quot; src=&quot;https://lh7-rt.googleusercontent.com/slidesz/AGV_vUcQKiUZDjNDuR3B27mAqFeKUKS80wyTlK-fJjmXTZHNs9t3gWqnT2FarHh4osH-WLhd7lNp46m7uNIJR8gXkfcYUpc-wymlXzcTNj98_-hHHtxQzZGEHuupIIkntKca0CHtOQWBbs3UIvezYbabSiF3eY57u-pfWKAz7wQN=s2048?key=fMnLGsAR7HdY5qTKuxnaEQ&quot; alt=&quot;Endpoint resource icon for the Amazon API Gateway service.&quot;&gt;&lt;/b&gt;" id="aaUWFAEcgbaKU6TedSDt-20">
          <mxCell style="text;whiteSpace=wrap;html=1;" vertex="1" parent="1">
            <mxGeometry x="568" y="666" width="50" height="60" as="geometry" />
          </mxCell>
        </UserObject>
        <mxCell id="aaUWFAEcgbaKU6TedSDt-21" value="&lt;span style=&quot;color: rgb(22, 25, 31); font-family: &amp;quot;Amazon Ember&amp;quot;, &amp;quot;Helvetica Neue&amp;quot;, Roboto, Arial, sans-serif; font-size: 14px; text-align: start; background-color: rgb(255, 255, 255);&quot;&gt;WebSocketAPI&lt;/span&gt;" style="text;html=1;align=center;verticalAlign=middle;whiteSpace=wrap;rounded=0;" vertex="1" parent="1">
          <mxGeometry x="233" y="508.5" width="60" height="30" as="geometry" />
        </mxCell>
        <mxCell id="aaUWFAEcgbaKU6TedSDt-22" value="$connect" style="text;html=1;align=center;verticalAlign=middle;whiteSpace=wrap;rounded=0;" vertex="1" parent="1">
          <mxGeometry x="563" y="711" width="60" height="30" as="geometry" />
        </mxCell>
        <mxCell id="aaUWFAEcgbaKU6TedSDt-96" style="edgeStyle=orthogonalEdgeStyle;rounded=0;orthogonalLoop=1;jettySize=auto;html=1;exitX=1;exitY=0.5;exitDx=0;exitDy=0;entryX=0;entryY=0.5;entryDx=0;entryDy=0;" edge="1" parent="1" source="aaUWFAEcgbaKU6TedSDt-23" target="aaUWFAEcgbaKU6TedSDt-94">
          <mxGeometry relative="1" as="geometry" />
        </mxCell>
        <UserObject label="&lt;b style=&quot;font-weight:normal;&quot; id=&quot;docs-internal-guid-41e2e2aa-7fff-817b-e89c-840f88f79665&quot;&gt;&lt;img width=&quot;48px;&quot; height=&quot;48px;&quot; src=&quot;https://lh7-rt.googleusercontent.com/slidesz/AGV_vUcQKiUZDjNDuR3B27mAqFeKUKS80wyTlK-fJjmXTZHNs9t3gWqnT2FarHh4osH-WLhd7lNp46m7uNIJR8gXkfcYUpc-wymlXzcTNj98_-hHHtxQzZGEHuupIIkntKca0CHtOQWBbs3UIvezYbabSiF3eY57u-pfWKAz7wQN=s2048?key=fMnLGsAR7HdY5qTKuxnaEQ&quot; alt=&quot;Endpoint resource icon for the Amazon API Gateway service.&quot;&gt;&lt;/b&gt;" id="aaUWFAEcgbaKU6TedSDt-23">
          <mxCell style="text;whiteSpace=wrap;html=1;" vertex="1" parent="1">
            <mxGeometry x="568" y="581" width="50" height="60" as="geometry" />
          </mxCell>
        </UserObject>
        <mxCell id="aaUWFAEcgbaKU6TedSDt-24" value="$disconnect" style="text;html=1;align=center;verticalAlign=middle;whiteSpace=wrap;rounded=0;" vertex="1" parent="1">
          <mxGeometry x="563" y="631" width="60" height="30" as="geometry" />
        </mxCell>
        <mxCell id="aaUWFAEcgbaKU6TedSDt-114" style="edgeStyle=orthogonalEdgeStyle;rounded=0;orthogonalLoop=1;jettySize=auto;html=1;exitX=1;exitY=0.5;exitDx=0;exitDy=0;entryX=0;entryY=0.5;entryDx=0;entryDy=0;" edge="1" parent="1" source="aaUWFAEcgbaKU6TedSDt-25" target="aaUWFAEcgbaKU6TedSDt-112">
          <mxGeometry relative="1" as="geometry" />
        </mxCell>
        <UserObject label="&lt;b style=&quot;font-weight:normal;&quot; id=&quot;docs-internal-guid-41e2e2aa-7fff-817b-e89c-840f88f79665&quot;&gt;&lt;img width=&quot;48px;&quot; height=&quot;48px;&quot; src=&quot;https://lh7-rt.googleusercontent.com/slidesz/AGV_vUcQKiUZDjNDuR3B27mAqFeKUKS80wyTlK-fJjmXTZHNs9t3gWqnT2FarHh4osH-WLhd7lNp46m7uNIJR8gXkfcYUpc-wymlXzcTNj98_-hHHtxQzZGEHuupIIkntKca0CHtOQWBbs3UIvezYbabSiF3eY57u-pfWKAz7wQN=s2048?key=fMnLGsAR7HdY5qTKuxnaEQ&quot; alt=&quot;Endpoint resource icon for the Amazon API Gateway service.&quot;&gt;&lt;/b&gt;" id="aaUWFAEcgbaKU6TedSDt-25">
          <mxCell style="text;whiteSpace=wrap;html=1;" vertex="1" parent="1">
            <mxGeometry x="568" y="126" width="50" height="60" as="geometry" />
          </mxCell>
        </UserObject>
        <mxCell id="aaUWFAEcgbaKU6TedSDt-26" value="requestLatestPrice" style="text;html=1;align=center;verticalAlign=middle;whiteSpace=wrap;rounded=0;" vertex="1" parent="1">
          <mxGeometry x="563" y="176" width="60" height="30" as="geometry" />
        </mxCell>
        <mxCell id="aaUWFAEcgbaKU6TedSDt-159" style="edgeStyle=orthogonalEdgeStyle;rounded=0;orthogonalLoop=1;jettySize=auto;html=1;exitX=1;exitY=0.5;exitDx=0;exitDy=0;" edge="1" parent="1" source="aaUWFAEcgbaKU6TedSDt-31" target="aaUWFAEcgbaKU6TedSDt-155">
          <mxGeometry relative="1" as="geometry" />
        </mxCell>
        <UserObject label="&lt;b style=&quot;font-weight:normal;&quot; id=&quot;docs-internal-guid-41e2e2aa-7fff-817b-e89c-840f88f79665&quot;&gt;&lt;img width=&quot;48px;&quot; height=&quot;48px;&quot; src=&quot;https://lh7-rt.googleusercontent.com/slidesz/AGV_vUcQKiUZDjNDuR3B27mAqFeKUKS80wyTlK-fJjmXTZHNs9t3gWqnT2FarHh4osH-WLhd7lNp46m7uNIJR8gXkfcYUpc-wymlXzcTNj98_-hHHtxQzZGEHuupIIkntKca0CHtOQWBbs3UIvezYbabSiF3eY57u-pfWKAz7wQN=s2048?key=fMnLGsAR7HdY5qTKuxnaEQ&quot; alt=&quot;Endpoint resource icon for the Amazon API Gateway service.&quot;&gt;&lt;/b&gt;" id="aaUWFAEcgbaKU6TedSDt-31">
          <mxCell style="text;whiteSpace=wrap;html=1;" vertex="1" parent="1">
            <mxGeometry x="568" y="316.5" width="50" height="60" as="geometry" />
          </mxCell>
        </UserObject>
        <mxCell id="aaUWFAEcgbaKU6TedSDt-32" value="requestPrediction" style="text;html=1;align=center;verticalAlign=middle;whiteSpace=wrap;rounded=0;" vertex="1" parent="1">
          <mxGeometry x="563" y="366.5" width="60" height="30" as="geometry" />
        </mxCell>
        <mxCell id="aaUWFAEcgbaKU6TedSDt-151" style="edgeStyle=orthogonalEdgeStyle;rounded=0;orthogonalLoop=1;jettySize=auto;html=1;exitX=1;exitY=0.5;exitDx=0;exitDy=0;entryX=0;entryY=0.5;entryDx=0;entryDy=0;" edge="1" parent="1" source="aaUWFAEcgbaKU6TedSDt-33" target="aaUWFAEcgbaKU6TedSDt-149">
          <mxGeometry relative="1" as="geometry" />
        </mxCell>
        <UserObject label="&lt;b style=&quot;font-weight:normal;&quot; id=&quot;docs-internal-guid-41e2e2aa-7fff-817b-e89c-840f88f79665&quot;&gt;&lt;img width=&quot;48px;&quot; height=&quot;48px;&quot; src=&quot;https://lh7-rt.googleusercontent.com/slidesz/AGV_vUcQKiUZDjNDuR3B27mAqFeKUKS80wyTlK-fJjmXTZHNs9t3gWqnT2FarHh4osH-WLhd7lNp46m7uNIJR8gXkfcYUpc-wymlXzcTNj98_-hHHtxQzZGEHuupIIkntKca0CHtOQWBbs3UIvezYbabSiF3eY57u-pfWKAz7wQN=s2048?key=fMnLGsAR7HdY5qTKuxnaEQ&quot; alt=&quot;Endpoint resource icon for the Amazon API Gateway service.&quot;&gt;&lt;/b&gt;" id="aaUWFAEcgbaKU6TedSDt-33">
          <mxCell style="text;whiteSpace=wrap;html=1;" vertex="1" parent="1">
            <mxGeometry x="568" y="486" width="50" height="60" as="geometry" />
          </mxCell>
        </UserObject>
        <mxCell id="aaUWFAEcgbaKU6TedSDt-34" value="requestUserScore" style="text;html=1;align=center;verticalAlign=middle;whiteSpace=wrap;rounded=0;" vertex="1" parent="1">
          <mxGeometry x="568" y="536" width="60" height="30" as="geometry" />
        </mxCell>
        <mxCell id="aaUWFAEcgbaKU6TedSDt-158" style="edgeStyle=orthogonalEdgeStyle;rounded=0;orthogonalLoop=1;jettySize=auto;html=1;exitX=1;exitY=0.5;exitDx=0;exitDy=0;" edge="1" parent="1" source="aaUWFAEcgbaKU6TedSDt-35" target="aaUWFAEcgbaKU6TedSDt-153">
          <mxGeometry relative="1" as="geometry" />
        </mxCell>
        <UserObject label="&lt;b style=&quot;font-weight:normal;&quot; id=&quot;docs-internal-guid-41e2e2aa-7fff-817b-e89c-840f88f79665&quot;&gt;&lt;img width=&quot;48px;&quot; height=&quot;48px;&quot; src=&quot;https://lh7-rt.googleusercontent.com/slidesz/AGV_vUcQKiUZDjNDuR3B27mAqFeKUKS80wyTlK-fJjmXTZHNs9t3gWqnT2FarHh4osH-WLhd7lNp46m7uNIJR8gXkfcYUpc-wymlXzcTNj98_-hHHtxQzZGEHuupIIkntKca0CHtOQWBbs3UIvezYbabSiF3eY57u-pfWKAz7wQN=s2048?key=fMnLGsAR7HdY5qTKuxnaEQ&quot; alt=&quot;Endpoint resource icon for the Amazon API Gateway service.&quot;&gt;&lt;/b&gt;" id="aaUWFAEcgbaKU6TedSDt-35">
          <mxCell style="text;whiteSpace=wrap;html=1;" vertex="1" parent="1">
            <mxGeometry x="568" y="231.5" width="50" height="60" as="geometry" />
          </mxCell>
        </UserObject>
        <mxCell id="aaUWFAEcgbaKU6TedSDt-36" value="submitPrediction" style="text;html=1;align=center;verticalAlign=middle;whiteSpace=wrap;rounded=0;" vertex="1" parent="1">
          <mxGeometry x="563" y="281.5" width="60" height="30" as="geometry" />
        </mxCell>
        <mxCell id="aaUWFAEcgbaKU6TedSDt-84" style="edgeStyle=orthogonalEdgeStyle;rounded=0;orthogonalLoop=1;jettySize=auto;html=1;exitX=1;exitY=0.5;exitDx=0;exitDy=0;entryX=0;entryY=0.5;entryDx=0;entryDy=0;" edge="1" parent="1" source="aaUWFAEcgbaKU6TedSDt-37" target="aaUWFAEcgbaKU6TedSDt-25">
          <mxGeometry relative="1" as="geometry" />
        </mxCell>
        <mxCell id="aaUWFAEcgbaKU6TedSDt-85" style="edgeStyle=orthogonalEdgeStyle;rounded=0;orthogonalLoop=1;jettySize=auto;html=1;exitX=1;exitY=0.5;exitDx=0;exitDy=0;entryX=0;entryY=0.5;entryDx=0;entryDy=0;" edge="1" parent="1" source="aaUWFAEcgbaKU6TedSDt-37" target="aaUWFAEcgbaKU6TedSDt-35">
          <mxGeometry relative="1" as="geometry" />
        </mxCell>
        <mxCell id="aaUWFAEcgbaKU6TedSDt-86" style="edgeStyle=orthogonalEdgeStyle;rounded=0;orthogonalLoop=1;jettySize=auto;html=1;exitX=1;exitY=0.5;exitDx=0;exitDy=0;entryX=0;entryY=0.5;entryDx=0;entryDy=0;" edge="1" parent="1" source="aaUWFAEcgbaKU6TedSDt-37" target="aaUWFAEcgbaKU6TedSDt-31">
          <mxGeometry relative="1" as="geometry" />
        </mxCell>
        <mxCell id="aaUWFAEcgbaKU6TedSDt-88" style="edgeStyle=orthogonalEdgeStyle;rounded=0;orthogonalLoop=1;jettySize=auto;html=1;exitX=1;exitY=0.5;exitDx=0;exitDy=0;entryX=0;entryY=0.5;entryDx=0;entryDy=0;" edge="1" parent="1" source="aaUWFAEcgbaKU6TedSDt-37" target="aaUWFAEcgbaKU6TedSDt-23">
          <mxGeometry relative="1" as="geometry" />
        </mxCell>
        <mxCell id="aaUWFAEcgbaKU6TedSDt-89" style="edgeStyle=orthogonalEdgeStyle;rounded=0;orthogonalLoop=1;jettySize=auto;html=1;exitX=1;exitY=0.5;exitDx=0;exitDy=0;entryX=0;entryY=0.5;entryDx=0;entryDy=0;" edge="1" parent="1" source="aaUWFAEcgbaKU6TedSDt-37" target="aaUWFAEcgbaKU6TedSDt-20">
          <mxGeometry relative="1" as="geometry" />
        </mxCell>
        <mxCell id="aaUWFAEcgbaKU6TedSDt-106" style="edgeStyle=orthogonalEdgeStyle;rounded=0;orthogonalLoop=1;jettySize=auto;html=1;exitX=0.5;exitY=0;exitDx=0;exitDy=0;entryX=1;entryY=0.5;entryDx=0;entryDy=0;" edge="1" parent="1" source="aaUWFAEcgbaKU6TedSDt-37" target="aaUWFAEcgbaKU6TedSDt-82">
          <mxGeometry relative="1" as="geometry" />
        </mxCell>
        <UserObject label="&lt;b style=&quot;font-weight:normal;&quot; id=&quot;docs-internal-guid-9f73ce9d-7fff-b7b4-43bf-c10b748a1c7e&quot;&gt;&lt;img width=&quot;48px;&quot; height=&quot;48px;&quot; src=&quot;https://lh7-rt.googleusercontent.com/slidesz/AGV_vUf0-4DE8dmtTSxv4BLQlTYPaECTBV5UXGHIhKnsiuPvmuXtYN8vkPqB0YKtv4snkC7TAPpuLWWwmW6PouenVHaPBKA3JW0BcCBcBlNj70Nb7QQch-t4DDVal8dPjiO39yGNnSW5WkPu0UMPmBdtRG1JS97xTBNw2AZEabD7zA=s2048?key=fMnLGsAR7HdY5qTKuxnaEQ&quot; alt=&quot;Lambda function resource icon for the AWS Lambda service icon.&quot;&gt;&lt;/b&gt;" id="aaUWFAEcgbaKU6TedSDt-37">
          <mxCell style="text;whiteSpace=wrap;html=1;" vertex="1" parent="1">
            <mxGeometry x="358" y="433.5" width="50" height="60" as="geometry" />
          </mxCell>
        </UserObject>
        <mxCell id="aaUWFAEcgbaKU6TedSDt-38" value="authorizer" style="text;html=1;align=center;verticalAlign=middle;whiteSpace=wrap;rounded=0;" vertex="1" parent="1">
          <mxGeometry x="353" y="483.5" width="60" height="30" as="geometry" />
        </mxCell>
        <UserObject label="&lt;b style=&quot;font-weight:normal;&quot; id=&quot;docs-internal-guid-be9823fb-7fff-5642-f444-a931f68eff1a&quot;&gt;&lt;img width=&quot;48px;&quot; height=&quot;48px;&quot; src=&quot;https://lh7-rt.googleusercontent.com/slidesz/AGV_vUcp1mlc8RVhBCgdTET-cZ0Ijy18oovLVD4-05UOhLKgv38c-D9Dpcdesi3goa3_pVKpKZ36HcbFuR-DKFLB5ItW7lc6h8sFkGUvGCcl77M7t5DCJjolSdx03xiaNzxX3gidk6jLX0nbOJQkGGEjj81pEK4ZPEatKIuDMf5F=s2048?key=fMnLGsAR7HdY5qTKuxnaEQ&quot; alt=&quot;Table resource icon for the Amazon DynamoDB service.&quot;&gt;&lt;/b&gt;" id="aaUWFAEcgbaKU6TedSDt-39">
          <mxCell style="text;whiteSpace=wrap;html=1;" vertex="1" parent="1">
            <mxGeometry x="795.5" y="131" width="55" height="50" as="geometry" />
          </mxCell>
        </UserObject>
        <mxCell id="aaUWFAEcgbaKU6TedSDt-62" style="edgeStyle=orthogonalEdgeStyle;rounded=0;orthogonalLoop=1;jettySize=auto;html=1;exitX=1;exitY=0.5;exitDx=0;exitDy=0;" edge="1" parent="1" source="aaUWFAEcgbaKU6TedSDt-40" target="aaUWFAEcgbaKU6TedSDt-17">
          <mxGeometry relative="1" as="geometry" />
        </mxCell>
        <mxCell id="aaUWFAEcgbaKU6TedSDt-172" style="edgeStyle=orthogonalEdgeStyle;rounded=0;orthogonalLoop=1;jettySize=auto;html=1;exitX=0;exitY=0.75;exitDx=0;exitDy=0;entryX=0.5;entryY=0;entryDx=0;entryDy=0;" edge="1" parent="1" source="aaUWFAEcgbaKU6TedSDt-40">
          <mxGeometry relative="1" as="geometry">
            <mxPoint x="774.5" y="385.5" as="targetPoint" />
          </mxGeometry>
        </mxCell>
        <UserObject label="&lt;b style=&quot;font-weight:normal;&quot; id=&quot;docs-internal-guid-be9823fb-7fff-5642-f444-a931f68eff1a&quot;&gt;&lt;img width=&quot;48px;&quot; height=&quot;48px;&quot; src=&quot;https://lh7-rt.googleusercontent.com/slidesz/AGV_vUcp1mlc8RVhBCgdTET-cZ0Ijy18oovLVD4-05UOhLKgv38c-D9Dpcdesi3goa3_pVKpKZ36HcbFuR-DKFLB5ItW7lc6h8sFkGUvGCcl77M7t5DCJjolSdx03xiaNzxX3gidk6jLX0nbOJQkGGEjj81pEK4ZPEatKIuDMf5F=s2048?key=fMnLGsAR7HdY5qTKuxnaEQ&quot; alt=&quot;Table resource icon for the Amazon DynamoDB service.&quot;&gt;&lt;/b&gt;" id="aaUWFAEcgbaKU6TedSDt-40">
          <mxCell style="text;whiteSpace=wrap;html=1;" vertex="1" parent="1">
            <mxGeometry x="803.5" y="271.5" width="55" height="70" as="geometry" />
          </mxCell>
        </UserObject>
        <mxCell id="aaUWFAEcgbaKU6TedSDt-66" style="edgeStyle=orthogonalEdgeStyle;rounded=0;orthogonalLoop=1;jettySize=auto;html=1;exitX=1;exitY=0.5;exitDx=0;exitDy=0;entryX=0;entryY=0.5;entryDx=0;entryDy=0;" edge="1" parent="1" source="aaUWFAEcgbaKU6TedSDt-41" target="aaUWFAEcgbaKU6TedSDt-18">
          <mxGeometry relative="1" as="geometry" />
        </mxCell>
        <mxCell id="aaUWFAEcgbaKU6TedSDt-196" style="edgeStyle=orthogonalEdgeStyle;rounded=0;orthogonalLoop=1;jettySize=auto;html=1;exitX=0;exitY=0.25;exitDx=0;exitDy=0;entryX=0.5;entryY=1;entryDx=0;entryDy=0;" edge="1" parent="1" source="aaUWFAEcgbaKU6TedSDt-41" target="aaUWFAEcgbaKU6TedSDt-193">
          <mxGeometry relative="1" as="geometry" />
        </mxCell>
        <UserObject label="&lt;b style=&quot;font-weight:normal;&quot; id=&quot;docs-internal-guid-be9823fb-7fff-5642-f444-a931f68eff1a&quot;&gt;&lt;img width=&quot;48px;&quot; height=&quot;48px;&quot; src=&quot;https://lh7-rt.googleusercontent.com/slidesz/AGV_vUcp1mlc8RVhBCgdTET-cZ0Ijy18oovLVD4-05UOhLKgv38c-D9Dpcdesi3goa3_pVKpKZ36HcbFuR-DKFLB5ItW7lc6h8sFkGUvGCcl77M7t5DCJjolSdx03xiaNzxX3gidk6jLX0nbOJQkGGEjj81pEK4ZPEatKIuDMf5F=s2048?key=fMnLGsAR7HdY5qTKuxnaEQ&quot; alt=&quot;Table resource icon for the Amazon DynamoDB service.&quot;&gt;&lt;/b&gt;" id="aaUWFAEcgbaKU6TedSDt-41">
          <mxCell style="text;whiteSpace=wrap;html=1;" vertex="1" parent="1">
            <mxGeometry x="800.5" y="481" width="55" height="70" as="geometry" />
          </mxCell>
        </UserObject>
        <UserObject label="&lt;b style=&quot;font-weight:normal;&quot; id=&quot;docs-internal-guid-be9823fb-7fff-5642-f444-a931f68eff1a&quot;&gt;&lt;img width=&quot;48px;&quot; height=&quot;48px;&quot; src=&quot;https://lh7-rt.googleusercontent.com/slidesz/AGV_vUcp1mlc8RVhBCgdTET-cZ0Ijy18oovLVD4-05UOhLKgv38c-D9Dpcdesi3goa3_pVKpKZ36HcbFuR-DKFLB5ItW7lc6h8sFkGUvGCcl77M7t5DCJjolSdx03xiaNzxX3gidk6jLX0nbOJQkGGEjj81pEK4ZPEatKIuDMf5F=s2048?key=fMnLGsAR7HdY5qTKuxnaEQ&quot; alt=&quot;Table resource icon for the Amazon DynamoDB service.&quot;&gt;&lt;/b&gt;" id="aaUWFAEcgbaKU6TedSDt-42">
          <mxCell style="text;whiteSpace=wrap;html=1;" vertex="1" parent="1">
            <mxGeometry x="803" y="631" width="45" height="70" as="geometry" />
          </mxCell>
        </UserObject>
        <mxCell id="aaUWFAEcgbaKU6TedSDt-143" style="edgeStyle=orthogonalEdgeStyle;rounded=0;orthogonalLoop=1;jettySize=auto;html=1;exitX=1;exitY=0.5;exitDx=0;exitDy=0;" edge="1" parent="1" source="aaUWFAEcgbaKU6TedSDt-43">
          <mxGeometry relative="1" as="geometry">
            <mxPoint x="1111" y="170.66666666666674" as="targetPoint" />
          </mxGeometry>
        </mxCell>
        <UserObject label="&lt;b style=&quot;font-weight:normal;&quot; id=&quot;docs-internal-guid-9f73ce9d-7fff-b7b4-43bf-c10b748a1c7e&quot;&gt;&lt;img width=&quot;48px;&quot; height=&quot;48px;&quot; src=&quot;https://lh7-rt.googleusercontent.com/slidesz/AGV_vUf0-4DE8dmtTSxv4BLQlTYPaECTBV5UXGHIhKnsiuPvmuXtYN8vkPqB0YKtv4snkC7TAPpuLWWwmW6PouenVHaPBKA3JW0BcCBcBlNj70Nb7QQch-t4DDVal8dPjiO39yGNnSW5WkPu0UMPmBdtRG1JS97xTBNw2AZEabD7zA=s2048?key=fMnLGsAR7HdY5qTKuxnaEQ&quot; alt=&quot;Lambda function resource icon for the AWS Lambda service icon.&quot;&gt;&lt;/b&gt;" id="aaUWFAEcgbaKU6TedSDt-43">
          <mxCell style="text;whiteSpace=wrap;html=1;" vertex="1" parent="1">
            <mxGeometry x="990.5" y="141" width="50" height="60" as="geometry" />
          </mxCell>
        </UserObject>
        <mxCell id="aaUWFAEcgbaKU6TedSDt-44" value="priceStreamHandler" style="text;html=1;align=center;verticalAlign=middle;whiteSpace=wrap;rounded=0;" vertex="1" parent="1">
          <mxGeometry x="985.5" y="191" width="60" height="30" as="geometry" />
        </mxCell>
        <mxCell id="aaUWFAEcgbaKU6TedSDt-144" style="edgeStyle=orthogonalEdgeStyle;rounded=0;orthogonalLoop=1;jettySize=auto;html=1;exitX=1;exitY=0.5;exitDx=0;exitDy=0;" edge="1" parent="1" source="aaUWFAEcgbaKU6TedSDt-53">
          <mxGeometry relative="1" as="geometry">
            <mxPoint x="1111" y="306.5" as="targetPoint" />
          </mxGeometry>
        </mxCell>
        <UserObject label="&lt;b style=&quot;font-weight:normal;&quot; id=&quot;docs-internal-guid-9f73ce9d-7fff-b7b4-43bf-c10b748a1c7e&quot;&gt;&lt;img width=&quot;48px;&quot; height=&quot;48px;&quot; src=&quot;https://lh7-rt.googleusercontent.com/slidesz/AGV_vUf0-4DE8dmtTSxv4BLQlTYPaECTBV5UXGHIhKnsiuPvmuXtYN8vkPqB0YKtv4snkC7TAPpuLWWwmW6PouenVHaPBKA3JW0BcCBcBlNj70Nb7QQch-t4DDVal8dPjiO39yGNnSW5WkPu0UMPmBdtRG1JS97xTBNw2AZEabD7zA=s2048?key=fMnLGsAR7HdY5qTKuxnaEQ&quot; alt=&quot;Lambda function resource icon for the AWS Lambda service icon.&quot;&gt;&lt;/b&gt;" id="aaUWFAEcgbaKU6TedSDt-53">
          <mxCell style="text;whiteSpace=wrap;html=1;" vertex="1" parent="1">
            <mxGeometry x="998.5" y="276.5" width="50" height="60" as="geometry" />
          </mxCell>
        </UserObject>
        <mxCell id="aaUWFAEcgbaKU6TedSDt-54" value="predictionStreamHandler" style="text;html=1;align=center;verticalAlign=middle;whiteSpace=wrap;rounded=0;" vertex="1" parent="1">
          <mxGeometry x="993.5" y="326.5" width="60" height="30" as="geometry" />
        </mxCell>
        <mxCell id="aaUWFAEcgbaKU6TedSDt-145" style="edgeStyle=orthogonalEdgeStyle;rounded=0;orthogonalLoop=1;jettySize=auto;html=1;exitX=1;exitY=0.5;exitDx=0;exitDy=0;" edge="1" parent="1" source="aaUWFAEcgbaKU6TedSDt-57">
          <mxGeometry relative="1" as="geometry">
            <mxPoint x="1111" y="515.6666666666667" as="targetPoint" />
          </mxGeometry>
        </mxCell>
        <UserObject label="&lt;b style=&quot;font-weight:normal;&quot; id=&quot;docs-internal-guid-9f73ce9d-7fff-b7b4-43bf-c10b748a1c7e&quot;&gt;&lt;img width=&quot;48px;&quot; height=&quot;48px;&quot; src=&quot;https://lh7-rt.googleusercontent.com/slidesz/AGV_vUf0-4DE8dmtTSxv4BLQlTYPaECTBV5UXGHIhKnsiuPvmuXtYN8vkPqB0YKtv4snkC7TAPpuLWWwmW6PouenVHaPBKA3JW0BcCBcBlNj70Nb7QQch-t4DDVal8dPjiO39yGNnSW5WkPu0UMPmBdtRG1JS97xTBNw2AZEabD7zA=s2048?key=fMnLGsAR7HdY5qTKuxnaEQ&quot; alt=&quot;Lambda function resource icon for the AWS Lambda service icon.&quot;&gt;&lt;/b&gt;" id="aaUWFAEcgbaKU6TedSDt-57">
          <mxCell style="text;whiteSpace=wrap;html=1;" vertex="1" parent="1">
            <mxGeometry x="1000.5" y="486" width="48" height="60" as="geometry" />
          </mxCell>
        </UserObject>
        <mxCell id="aaUWFAEcgbaKU6TedSDt-58" value="scoreStreamHandler" style="text;html=1;align=center;verticalAlign=middle;whiteSpace=wrap;rounded=0;" vertex="1" parent="1">
          <mxGeometry x="995.5" y="536" width="58" height="30" as="geometry" />
        </mxCell>
        <UserObject label="&lt;b style=&quot;font-weight:normal;&quot; id=&quot;docs-internal-guid-ef5b548f-7fff-428d-770f-1f09d30aa1f9&quot;&gt;&lt;img width=&quot;48px;&quot; height=&quot;48px;&quot; src=&quot;https://lh7-rt.googleusercontent.com/slidesz/AGV_vUe2UJ9QTAXRHZORSkeQbfllK01npCf51gyz6XtZvXBgGURyfPySqCC9LpAZnolOZu3C72cuLe_lIOiMmRp0eevdLWoyIyGBkojUXboMM4RHxQN_MTARmyoEmf2uO6sjqGGvFehPIiLSKunTH-kF-hIMkWWdEy7x6nwQOVkmNw=s2048?key=fMnLGsAR7HdY5qTKuxnaEQ&quot; alt=&quot;Rule resource icon for the Amazon EventBridge service.&quot;&gt;&lt;/b&gt;" id="aaUWFAEcgbaKU6TedSDt-59">
          <mxCell style="text;whiteSpace=wrap;html=1;" vertex="1" parent="1">
            <mxGeometry x="573" y="46" width="50" height="50" as="geometry" />
          </mxCell>
        </UserObject>
        <mxCell id="aaUWFAEcgbaKU6TedSDt-81" style="edgeStyle=orthogonalEdgeStyle;rounded=0;orthogonalLoop=1;jettySize=auto;html=1;exitX=1;exitY=0.5;exitDx=0;exitDy=0;entryX=0;entryY=0.5;entryDx=0;entryDy=0;" edge="1" parent="1" source="aaUWFAEcgbaKU6TedSDt-76" target="aaUWFAEcgbaKU6TedSDt-43">
          <mxGeometry relative="1" as="geometry" />
        </mxCell>
        <UserObject label="&lt;b style=&quot;font-weight:normal;&quot; id=&quot;docs-internal-guid-b3e5f6c6-7fff-bafe-965e-08de49ae7b6a&quot;&gt;&lt;img width=&quot;48px;&quot; height=&quot;48px;&quot; src=&quot;https://lh7-rt.googleusercontent.com/slidesz/AGV_vUc_FQBTi1T54LS-GyTTXyXDhwIVa1MDt0QooNEt1XMVmrXSXtOL53smjEJN392AyZERbPHY94xblzUXqH1G_FyFITv38ZnS1wJKbkBE21BWkeFFQmUHQJPKyaQaPul9mG-f8xHV3-UThEhDX3paVEKU3C5fguZZ3xdnbXliQw=s2048?key=fMnLGsAR7HdY5qTKuxnaEQ&quot; alt=&quot;Stream resource icon for the Amazon DynamoDB service.&quot;&gt;&lt;/b&gt;" id="aaUWFAEcgbaKU6TedSDt-76">
          <mxCell style="text;whiteSpace=wrap;html=1;" vertex="1" parent="1">
            <mxGeometry x="901" y="136" width="50" height="70" as="geometry" />
          </mxCell>
        </UserObject>
        <mxCell id="aaUWFAEcgbaKU6TedSDt-78" style="edgeStyle=orthogonalEdgeStyle;rounded=0;orthogonalLoop=1;jettySize=auto;html=1;exitX=1;exitY=0.75;exitDx=0;exitDy=0;entryX=-0.039;entryY=0.451;entryDx=0;entryDy=0;entryPerimeter=0;" edge="1" parent="1" source="aaUWFAEcgbaKU6TedSDt-39" target="aaUWFAEcgbaKU6TedSDt-76">
          <mxGeometry relative="1" as="geometry" />
        </mxCell>
        <UserObject label="&lt;b style=&quot;font-weight:normal;&quot; id=&quot;docs-internal-guid-99822572-7fff-d027-5931-a3340bdff418&quot;&gt;&lt;img width=&quot;80px;&quot; height=&quot;80px;&quot; src=&quot;https://lh7-rt.googleusercontent.com/slidesz/AGV_vUcvq2Cx9Do8Ak89_18AyduSFS-egul3hLbuYSwBkME691rYpsLzWTYl5R1zlru4rQj7fmfxxCbuShTKsrFytXiTRc8a2hYIkv6Ffiauzpkb9kNu9oezkhem5j5Ed0OyJinNMneHTjQts2HA-foD-dgKRbyN-23kzEFiJH6P7Q=s2048?key=fMnLGsAR7HdY5qTKuxnaEQ&quot; alt=&quot;Amazon Cognito service icon.&quot;&gt;&lt;/b&gt;" id="aaUWFAEcgbaKU6TedSDt-82">
          <mxCell style="text;whiteSpace=wrap;html=1;" vertex="1" parent="1">
            <mxGeometry x="223" y="271" width="80" height="90" as="geometry" />
          </mxCell>
        </UserObject>
        <mxCell id="aaUWFAEcgbaKU6TedSDt-87" style="edgeStyle=orthogonalEdgeStyle;rounded=0;orthogonalLoop=1;jettySize=auto;html=1;exitX=1;exitY=0.5;exitDx=0;exitDy=0;entryX=0.017;entryY=0.592;entryDx=0;entryDy=0;entryPerimeter=0;" edge="1" parent="1" source="aaUWFAEcgbaKU6TedSDt-37" target="aaUWFAEcgbaKU6TedSDt-33">
          <mxGeometry relative="1" as="geometry" />
        </mxCell>
        <mxCell id="aaUWFAEcgbaKU6TedSDt-99" style="edgeStyle=orthogonalEdgeStyle;rounded=0;orthogonalLoop=1;jettySize=auto;html=1;exitX=1;exitY=0.5;exitDx=0;exitDy=0;entryX=0;entryY=0.5;entryDx=0;entryDy=0;" edge="1" parent="1" source="aaUWFAEcgbaKU6TedSDt-92" target="aaUWFAEcgbaKU6TedSDt-42">
          <mxGeometry relative="1" as="geometry" />
        </mxCell>
        <UserObject label="&lt;b style=&quot;font-weight:normal;&quot; id=&quot;docs-internal-guid-9f73ce9d-7fff-b7b4-43bf-c10b748a1c7e&quot;&gt;&lt;img width=&quot;48px;&quot; height=&quot;48px;&quot; src=&quot;https://lh7-rt.googleusercontent.com/slidesz/AGV_vUf0-4DE8dmtTSxv4BLQlTYPaECTBV5UXGHIhKnsiuPvmuXtYN8vkPqB0YKtv4snkC7TAPpuLWWwmW6PouenVHaPBKA3JW0BcCBcBlNj70Nb7QQch-t4DDVal8dPjiO39yGNnSW5WkPu0UMPmBdtRG1JS97xTBNw2AZEabD7zA=s2048?key=fMnLGsAR7HdY5qTKuxnaEQ&quot; alt=&quot;Lambda function resource icon for the AWS Lambda service icon.&quot;&gt;&lt;/b&gt;" id="aaUWFAEcgbaKU6TedSDt-92">
          <mxCell style="text;whiteSpace=wrap;html=1;" vertex="1" parent="1">
            <mxGeometry x="673" y="666" width="48" height="60" as="geometry" />
          </mxCell>
        </UserObject>
        <mxCell id="aaUWFAEcgbaKU6TedSDt-93" value="connect" style="text;html=1;align=center;verticalAlign=middle;whiteSpace=wrap;rounded=0;" vertex="1" parent="1">
          <mxGeometry x="668" y="711" width="58" height="30" as="geometry" />
        </mxCell>
        <mxCell id="aaUWFAEcgbaKU6TedSDt-98" style="edgeStyle=orthogonalEdgeStyle;rounded=0;orthogonalLoop=1;jettySize=auto;html=1;exitX=1;exitY=0.5;exitDx=0;exitDy=0;entryX=0;entryY=0.25;entryDx=0;entryDy=0;" edge="1" parent="1" source="aaUWFAEcgbaKU6TedSDt-94" target="aaUWFAEcgbaKU6TedSDt-42">
          <mxGeometry relative="1" as="geometry" />
        </mxCell>
        <UserObject label="&lt;b style=&quot;font-weight:normal;&quot; id=&quot;docs-internal-guid-9f73ce9d-7fff-b7b4-43bf-c10b748a1c7e&quot;&gt;&lt;img width=&quot;48px;&quot; height=&quot;48px;&quot; src=&quot;https://lh7-rt.googleusercontent.com/slidesz/AGV_vUf0-4DE8dmtTSxv4BLQlTYPaECTBV5UXGHIhKnsiuPvmuXtYN8vkPqB0YKtv4snkC7TAPpuLWWwmW6PouenVHaPBKA3JW0BcCBcBlNj70Nb7QQch-t4DDVal8dPjiO39yGNnSW5WkPu0UMPmBdtRG1JS97xTBNw2AZEabD7zA=s2048?key=fMnLGsAR7HdY5qTKuxnaEQ&quot; alt=&quot;Lambda function resource icon for the AWS Lambda service icon.&quot;&gt;&lt;/b&gt;" id="aaUWFAEcgbaKU6TedSDt-94">
          <mxCell style="text;whiteSpace=wrap;html=1;" vertex="1" parent="1">
            <mxGeometry x="673" y="581" width="48" height="60" as="geometry" />
          </mxCell>
        </UserObject>
        <mxCell id="aaUWFAEcgbaKU6TedSDt-95" value="disconnect" style="text;html=1;align=center;verticalAlign=middle;whiteSpace=wrap;rounded=0;" vertex="1" parent="1">
          <mxGeometry x="668" y="631" width="58" height="30" as="geometry" />
        </mxCell>
        <mxCell id="aaUWFAEcgbaKU6TedSDt-104" style="edgeStyle=orthogonalEdgeStyle;rounded=0;orthogonalLoop=1;jettySize=auto;html=1;exitX=1;exitY=0.5;exitDx=0;exitDy=0;entryX=0;entryY=0.5;entryDx=0;entryDy=0;" edge="1" parent="1" source="aaUWFAEcgbaKU6TedSDt-100" target="aaUWFAEcgbaKU6TedSDt-82">
          <mxGeometry relative="1" as="geometry" />
        </mxCell>
        <mxCell id="aaUWFAEcgbaKU6TedSDt-105" style="edgeStyle=orthogonalEdgeStyle;rounded=0;orthogonalLoop=1;jettySize=auto;html=1;exitX=1;exitY=0.5;exitDx=0;exitDy=0;" edge="1" parent="1" source="aaUWFAEcgbaKU6TedSDt-100" target="aaUWFAEcgbaKU6TedSDt-19">
          <mxGeometry relative="1" as="geometry" />
        </mxCell>
        <UserObject label="&lt;b style=&quot;font-weight:normal;&quot; id=&quot;docs-internal-guid-c0253083-7fff-9228-8601-0f038f370193&quot;&gt;&lt;img width=&quot;48px;&quot; height=&quot;48px;&quot; src=&quot;https://lh7-rt.googleusercontent.com/slidesz/AGV_vUdbeQAJKDeBEedP8H5Y3RZZF09kIqK-eIHBf0uD6hlvvED7MjfQp0-ioEfrmm5_2MLsRHDfQho6w-VnajKM3S6cCkvE9_ya6JY6yhReg315NRkOtoV8rYqRj2qxZ_qTdR7Tgw6NSu7gvMCHGsqWLPP8t69EC5Fh4iJ8cODhLQ=s2048?key=fMnLGsAR7HdY5qTKuxnaEQ&quot; alt=&quot;Client resource icon for the General Icons category.&quot;&gt;&lt;/b&gt;" id="aaUWFAEcgbaKU6TedSDt-100">
          <mxCell style="text;whiteSpace=wrap;html=1;" vertex="1" parent="1">
            <mxGeometry x="63" y="361" width="50" height="60" as="geometry" />
          </mxCell>
        </UserObject>
        <mxCell id="aaUWFAEcgbaKU6TedSDt-108" value="AuthenticationUserPool" style="text;html=1;align=center;verticalAlign=middle;whiteSpace=wrap;rounded=0;" vertex="1" parent="1">
          <mxGeometry x="233" y="361" width="60" height="30" as="geometry" />
        </mxCell>
        <mxCell id="aaUWFAEcgbaKU6TedSDt-109" value="client" style="text;html=1;align=center;verticalAlign=middle;whiteSpace=wrap;rounded=0;" vertex="1" parent="1">
          <mxGeometry x="58" y="411" width="60" height="30" as="geometry" />
        </mxCell>
        <mxCell id="aaUWFAEcgbaKU6TedSDt-146" style="edgeStyle=orthogonalEdgeStyle;rounded=0;orthogonalLoop=1;jettySize=auto;html=1;exitX=1;exitY=0.5;exitDx=0;exitDy=0;entryX=0;entryY=0.5;entryDx=0;entryDy=0;" edge="1" parent="1" source="aaUWFAEcgbaKU6TedSDt-112" target="aaUWFAEcgbaKU6TedSDt-39">
          <mxGeometry relative="1" as="geometry" />
        </mxCell>
        <UserObject label="&lt;b style=&quot;font-weight:normal;&quot; id=&quot;docs-internal-guid-9f73ce9d-7fff-b7b4-43bf-c10b748a1c7e&quot;&gt;&lt;img width=&quot;48px;&quot; height=&quot;48px;&quot; src=&quot;https://lh7-rt.googleusercontent.com/slidesz/AGV_vUf0-4DE8dmtTSxv4BLQlTYPaECTBV5UXGHIhKnsiuPvmuXtYN8vkPqB0YKtv4snkC7TAPpuLWWwmW6PouenVHaPBKA3JW0BcCBcBlNj70Nb7QQch-t4DDVal8dPjiO39yGNnSW5WkPu0UMPmBdtRG1JS97xTBNw2AZEabD7zA=s2048?key=fMnLGsAR7HdY5qTKuxnaEQ&quot; alt=&quot;Lambda function resource icon for the AWS Lambda service icon.&quot;&gt;&lt;/b&gt;" id="aaUWFAEcgbaKU6TedSDt-112">
          <mxCell style="text;whiteSpace=wrap;html=1;" vertex="1" parent="1">
            <mxGeometry x="679" y="126" width="48" height="60" as="geometry" />
          </mxCell>
        </UserObject>
        <mxCell id="aaUWFAEcgbaKU6TedSDt-113" value="requestLatestPrice" style="text;html=1;align=center;verticalAlign=middle;whiteSpace=wrap;rounded=0;" vertex="1" parent="1">
          <mxGeometry x="674" y="176" width="58" height="30" as="geometry" />
        </mxCell>
        <mxCell id="aaUWFAEcgbaKU6TedSDt-122" value="PriceRule" style="text;html=1;align=center;verticalAlign=middle;whiteSpace=wrap;rounded=0;" vertex="1" parent="1">
          <mxGeometry x="563" y="96" width="60" height="30" as="geometry" />
        </mxCell>
        <mxCell id="aaUWFAEcgbaKU6TedSDt-180" style="edgeStyle=orthogonalEdgeStyle;rounded=0;orthogonalLoop=1;jettySize=auto;html=1;exitX=1;exitY=0.75;exitDx=0;exitDy=0;entryX=0.5;entryY=0;entryDx=0;entryDy=0;" edge="1" parent="1" source="aaUWFAEcgbaKU6TedSDt-123" target="aaUWFAEcgbaKU6TedSDt-39">
          <mxGeometry relative="1" as="geometry" />
        </mxCell>
        <UserObject label="&lt;b style=&quot;font-weight:normal;&quot; id=&quot;docs-internal-guid-9f73ce9d-7fff-b7b4-43bf-c10b748a1c7e&quot;&gt;&lt;img width=&quot;48px;&quot; height=&quot;48px;&quot; src=&quot;https://lh7-rt.googleusercontent.com/slidesz/AGV_vUf0-4DE8dmtTSxv4BLQlTYPaECTBV5UXGHIhKnsiuPvmuXtYN8vkPqB0YKtv4snkC7TAPpuLWWwmW6PouenVHaPBKA3JW0BcCBcBlNj70Nb7QQch-t4DDVal8dPjiO39yGNnSW5WkPu0UMPmBdtRG1JS97xTBNw2AZEabD7zA=s2048?key=fMnLGsAR7HdY5qTKuxnaEQ&quot; alt=&quot;Lambda function resource icon for the AWS Lambda service icon.&quot;&gt;&lt;/b&gt;" id="aaUWFAEcgbaKU6TedSDt-123">
          <mxCell style="text;whiteSpace=wrap;html=1;" vertex="1" parent="1">
            <mxGeometry x="682" y="46" width="50" height="60" as="geometry" />
          </mxCell>
        </UserObject>
        <mxCell id="aaUWFAEcgbaKU6TedSDt-124" value="priceUpdate" style="text;html=1;align=center;verticalAlign=middle;whiteSpace=wrap;rounded=0;" vertex="1" parent="1">
          <mxGeometry x="673" y="96" width="60" height="30" as="geometry" />
        </mxCell>
        <mxCell id="aaUWFAEcgbaKU6TedSDt-129" style="edgeStyle=orthogonalEdgeStyle;rounded=0;orthogonalLoop=1;jettySize=auto;html=1;exitX=1;exitY=0.75;exitDx=0;exitDy=0;entryX=0.053;entryY=0.633;entryDx=0;entryDy=0;entryPerimeter=0;" edge="1" parent="1">
          <mxGeometry relative="1" as="geometry">
            <mxPoint x="618.0000000000002" y="83.5" as="sourcePoint" />
            <mxPoint x="680.6500000000001" y="83.98000000000002" as="targetPoint" />
          </mxGeometry>
        </mxCell>
        <UserObject label="&lt;b style=&quot;font-weight:normal;&quot; id=&quot;docs-internal-guid-3052c140-7fff-5b8e-2b81-100a00ad658b&quot;&gt;&lt;img width=&quot;48px;&quot; height=&quot;48px;&quot; src=&quot;https://lh7-rt.googleusercontent.com/slidesz/AGV_vUe_J5IQqNaviI76rITicQhmMHWEjSUjFdsD6A2ltMRhdRE5dPqX8KSDD7ZuifHUgqie7AnlNeeTe7NyivpubrkpCwF-zoQnfWMofBc-jmaTLigp7Fz9HUd5K4fZna2GYaMjoQPKyf7JqyajhkEH5BA6t0Cb__VmN6Ltan7ESQ=s2048?key=fMnLGsAR7HdY5qTKuxnaEQ&quot; alt=&quot;Internet resource icon for the General Icons category.&quot;&gt;&lt;/b&gt;" id="aaUWFAEcgbaKU6TedSDt-130">
          <mxCell style="text;whiteSpace=wrap;html=1;" vertex="1" parent="1">
            <mxGeometry x="795.5" width="40" height="50" as="geometry" />
          </mxCell>
        </UserObject>
        <mxCell id="aaUWFAEcgbaKU6TedSDt-139" value="" style="endArrow=classic;html=1;rounded=0;entryX=0.5;entryY=0;entryDx=0;entryDy=0;" edge="1" parent="1" target="aaUWFAEcgbaKU6TedSDt-21">
          <mxGeometry width="50" height="50" relative="1" as="geometry">
            <mxPoint x="1111" y="171" as="sourcePoint" />
            <mxPoint x="1091" y="781" as="targetPoint" />
            <Array as="points">
              <mxPoint x="1111" y="481" />
              <mxPoint x="1111" y="791" />
              <mxPoint x="263" y="791" />
            </Array>
          </mxGeometry>
        </mxCell>
        <mxCell id="aaUWFAEcgbaKU6TedSDt-141" value="" style="endArrow=classic;html=1;rounded=0;entryX=1;entryY=0.5;entryDx=0;entryDy=0;" edge="1" parent="1" target="aaUWFAEcgbaKU6TedSDt-42">
          <mxGeometry width="50" height="50" relative="1" as="geometry">
            <mxPoint x="941" y="791" as="sourcePoint" />
            <mxPoint x="661" y="521" as="targetPoint" />
            <Array as="points">
              <mxPoint x="941" y="666" />
            </Array>
          </mxGeometry>
        </mxCell>
        <mxCell id="aaUWFAEcgbaKU6TedSDt-147" value="coingeko" style="text;html=1;align=center;verticalAlign=middle;whiteSpace=wrap;rounded=0;" vertex="1" parent="1">
          <mxGeometry x="785.5" y="40" width="60" height="31" as="geometry" />
        </mxCell>
        <mxCell id="aaUWFAEcgbaKU6TedSDt-152" style="edgeStyle=orthogonalEdgeStyle;rounded=0;orthogonalLoop=1;jettySize=auto;html=1;exitX=1;exitY=0.5;exitDx=0;exitDy=0;entryX=0;entryY=0.5;entryDx=0;entryDy=0;" edge="1" parent="1" source="aaUWFAEcgbaKU6TedSDt-149" target="aaUWFAEcgbaKU6TedSDt-41">
          <mxGeometry relative="1" as="geometry" />
        </mxCell>
        <UserObject label="&lt;b style=&quot;font-weight:normal;&quot; id=&quot;docs-internal-guid-9f73ce9d-7fff-b7b4-43bf-c10b748a1c7e&quot;&gt;&lt;img width=&quot;48px;&quot; height=&quot;48px;&quot; src=&quot;https://lh7-rt.googleusercontent.com/slidesz/AGV_vUf0-4DE8dmtTSxv4BLQlTYPaECTBV5UXGHIhKnsiuPvmuXtYN8vkPqB0YKtv4snkC7TAPpuLWWwmW6PouenVHaPBKA3JW0BcCBcBlNj70Nb7QQch-t4DDVal8dPjiO39yGNnSW5WkPu0UMPmBdtRG1JS97xTBNw2AZEabD7zA=s2048?key=fMnLGsAR7HdY5qTKuxnaEQ&quot; alt=&quot;Lambda function resource icon for the AWS Lambda service icon.&quot;&gt;&lt;/b&gt;" id="aaUWFAEcgbaKU6TedSDt-149">
          <mxCell style="text;whiteSpace=wrap;html=1;" vertex="1" parent="1">
            <mxGeometry x="673" y="486" width="48" height="60" as="geometry" />
          </mxCell>
        </UserObject>
        <mxCell id="aaUWFAEcgbaKU6TedSDt-150" value="uerScore" style="text;html=1;align=center;verticalAlign=middle;whiteSpace=wrap;rounded=0;" vertex="1" parent="1">
          <mxGeometry x="668" y="536" width="58" height="30" as="geometry" />
        </mxCell>
        <mxCell id="aaUWFAEcgbaKU6TedSDt-161" style="edgeStyle=orthogonalEdgeStyle;rounded=0;orthogonalLoop=1;jettySize=auto;html=1;exitX=1;exitY=0.5;exitDx=0;exitDy=0;entryX=0;entryY=0.25;entryDx=0;entryDy=0;" edge="1" parent="1" source="aaUWFAEcgbaKU6TedSDt-153" target="aaUWFAEcgbaKU6TedSDt-40">
          <mxGeometry relative="1" as="geometry" />
        </mxCell>
        <UserObject label="&lt;b style=&quot;font-weight:normal;&quot; id=&quot;docs-internal-guid-9f73ce9d-7fff-b7b4-43bf-c10b748a1c7e&quot;&gt;&lt;img width=&quot;48px;&quot; height=&quot;48px;&quot; src=&quot;https://lh7-rt.googleusercontent.com/slidesz/AGV_vUf0-4DE8dmtTSxv4BLQlTYPaECTBV5UXGHIhKnsiuPvmuXtYN8vkPqB0YKtv4snkC7TAPpuLWWwmW6PouenVHaPBKA3JW0BcCBcBlNj70Nb7QQch-t4DDVal8dPjiO39yGNnSW5WkPu0UMPmBdtRG1JS97xTBNw2AZEabD7zA=s2048?key=fMnLGsAR7HdY5qTKuxnaEQ&quot; alt=&quot;Lambda function resource icon for the AWS Lambda service icon.&quot;&gt;&lt;/b&gt;" id="aaUWFAEcgbaKU6TedSDt-153">
          <mxCell style="text;whiteSpace=wrap;html=1;" vertex="1" parent="1">
            <mxGeometry x="673" y="231.5" width="48" height="60" as="geometry" />
          </mxCell>
        </UserObject>
        <mxCell id="aaUWFAEcgbaKU6TedSDt-154" value="submitPrediction" style="text;html=1;align=center;verticalAlign=middle;whiteSpace=wrap;rounded=0;" vertex="1" parent="1">
          <mxGeometry x="668" y="281.5" width="58" height="30" as="geometry" />
        </mxCell>
        <mxCell id="aaUWFAEcgbaKU6TedSDt-162" style="edgeStyle=orthogonalEdgeStyle;rounded=0;orthogonalLoop=1;jettySize=auto;html=1;exitX=1;exitY=0.5;exitDx=0;exitDy=0;entryX=0;entryY=0.5;entryDx=0;entryDy=0;" edge="1" parent="1" source="aaUWFAEcgbaKU6TedSDt-155" target="aaUWFAEcgbaKU6TedSDt-40">
          <mxGeometry relative="1" as="geometry" />
        </mxCell>
        <UserObject label="&lt;b style=&quot;font-weight:normal;&quot; id=&quot;docs-internal-guid-9f73ce9d-7fff-b7b4-43bf-c10b748a1c7e&quot;&gt;&lt;img width=&quot;48px;&quot; height=&quot;48px;&quot; src=&quot;https://lh7-rt.googleusercontent.com/slidesz/AGV_vUf0-4DE8dmtTSxv4BLQlTYPaECTBV5UXGHIhKnsiuPvmuXtYN8vkPqB0YKtv4snkC7TAPpuLWWwmW6PouenVHaPBKA3JW0BcCBcBlNj70Nb7QQch-t4DDVal8dPjiO39yGNnSW5WkPu0UMPmBdtRG1JS97xTBNw2AZEabD7zA=s2048?key=fMnLGsAR7HdY5qTKuxnaEQ&quot; alt=&quot;Lambda function resource icon for the AWS Lambda service icon.&quot;&gt;&lt;/b&gt;" id="aaUWFAEcgbaKU6TedSDt-155">
          <mxCell style="text;whiteSpace=wrap;html=1;" vertex="1" parent="1">
            <mxGeometry x="673" y="316.5" width="48" height="60" as="geometry" />
          </mxCell>
        </UserObject>
        <mxCell id="aaUWFAEcgbaKU6TedSDt-156" value="requestPrediction" style="text;html=1;align=center;verticalAlign=middle;whiteSpace=wrap;rounded=0;" vertex="1" parent="1">
          <mxGeometry x="668" y="366.5" width="58" height="30" as="geometry" />
        </mxCell>
        <mxCell id="aaUWFAEcgbaKU6TedSDt-195" style="edgeStyle=orthogonalEdgeStyle;rounded=0;orthogonalLoop=1;jettySize=auto;html=1;exitX=1;exitY=0.5;exitDx=0;exitDy=0;entryX=0;entryY=0.5;entryDx=0;entryDy=0;" edge="1" parent="1" source="aaUWFAEcgbaKU6TedSDt-163" target="aaUWFAEcgbaKU6TedSDt-165">
          <mxGeometry relative="1" as="geometry" />
        </mxCell>
        <UserObject label="&lt;b style=&quot;font-weight:normal;&quot; id=&quot;docs-internal-guid-ef5b548f-7fff-428d-770f-1f09d30aa1f9&quot;&gt;&lt;img width=&quot;48px;&quot; height=&quot;48px;&quot; src=&quot;https://lh7-rt.googleusercontent.com/slidesz/AGV_vUe2UJ9QTAXRHZORSkeQbfllK01npCf51gyz6XtZvXBgGURyfPySqCC9LpAZnolOZu3C72cuLe_lIOiMmRp0eevdLWoyIyGBkojUXboMM4RHxQN_MTARmyoEmf2uO6sjqGGvFehPIiLSKunTH-kF-hIMkWWdEy7x6nwQOVkmNw=s2048?key=fMnLGsAR7HdY5qTKuxnaEQ&quot; alt=&quot;Rule resource icon for the Amazon EventBridge service.&quot;&gt;&lt;/b&gt;" id="aaUWFAEcgbaKU6TedSDt-163">
          <mxCell style="text;whiteSpace=wrap;html=1;" vertex="1" parent="1">
            <mxGeometry x="568" y="397" width="50" height="49" as="geometry" />
          </mxCell>
        </UserObject>
        <mxCell id="aaUWFAEcgbaKU6TedSDt-164" value="EvaluatePredictionsRule" style="text;html=1;align=center;verticalAlign=middle;whiteSpace=wrap;rounded=0;" vertex="1" parent="1">
          <mxGeometry x="563" y="446" width="60" height="26" as="geometry" />
        </mxCell>
        <mxCell id="aaUWFAEcgbaKU6TedSDt-175" style="edgeStyle=orthogonalEdgeStyle;rounded=0;orthogonalLoop=1;jettySize=auto;html=1;exitX=1;exitY=0.25;exitDx=0;exitDy=0;entryX=1;entryY=0.75;entryDx=0;entryDy=0;" edge="1" parent="1" target="aaUWFAEcgbaKU6TedSDt-40">
          <mxGeometry relative="1" as="geometry">
            <mxPoint x="798.5" y="400.5" as="sourcePoint" />
            <Array as="points">
              <mxPoint x="891" y="400.5" />
              <mxPoint x="891" y="324.5" />
            </Array>
          </mxGeometry>
        </mxCell>
        <mxCell id="aaUWFAEcgbaKU6TedSDt-176" style="edgeStyle=orthogonalEdgeStyle;rounded=0;orthogonalLoop=1;jettySize=auto;html=1;exitX=1;exitY=0.75;exitDx=0;exitDy=0;entryX=1;entryY=0.25;entryDx=0;entryDy=0;" edge="1" parent="1" source="aaUWFAEcgbaKU6TedSDt-165" target="aaUWFAEcgbaKU6TedSDt-41">
          <mxGeometry relative="1" as="geometry" />
        </mxCell>
        <UserObject label="&lt;b style=&quot;font-weight:normal;&quot; id=&quot;docs-internal-guid-9f73ce9d-7fff-b7b4-43bf-c10b748a1c7e&quot;&gt;&lt;img width=&quot;48px;&quot; height=&quot;48px;&quot; src=&quot;https://lh7-rt.googleusercontent.com/slidesz/AGV_vUf0-4DE8dmtTSxv4BLQlTYPaECTBV5UXGHIhKnsiuPvmuXtYN8vkPqB0YKtv4snkC7TAPpuLWWwmW6PouenVHaPBKA3JW0BcCBcBlNj70Nb7QQch-t4DDVal8dPjiO39yGNnSW5WkPu0UMPmBdtRG1JS97xTBNw2AZEabD7zA=s2048?key=fMnLGsAR7HdY5qTKuxnaEQ&quot; alt=&quot;Lambda function resource icon for the AWS Lambda service icon.&quot;&gt;&lt;/b&gt;" id="aaUWFAEcgbaKU6TedSDt-165">
          <mxCell style="text;whiteSpace=wrap;html=1;" vertex="1" parent="1">
            <mxGeometry x="750.5" y="391" width="48" height="60" as="geometry" />
          </mxCell>
        </UserObject>
        <mxCell id="aaUWFAEcgbaKU6TedSDt-184" style="edgeStyle=orthogonalEdgeStyle;rounded=0;orthogonalLoop=1;jettySize=auto;html=1;exitX=0;exitY=0.75;exitDx=0;exitDy=0;entryX=0.96;entryY=0.367;entryDx=0;entryDy=0;entryPerimeter=0;startArrow=block;startFill=1;" edge="1" parent="1" source="aaUWFAEcgbaKU6TedSDt-130" target="aaUWFAEcgbaKU6TedSDt-123">
          <mxGeometry relative="1" as="geometry" />
        </mxCell>
        <mxCell id="aaUWFAEcgbaKU6TedSDt-193" value="evaluatePrediction" style="text;html=1;align=center;verticalAlign=middle;whiteSpace=wrap;rounded=0;" vertex="1" parent="1">
          <mxGeometry x="745.5" y="453.5" width="58" height="30" as="geometry" />
        </mxCell>
      </root>
    </mxGraphModel>
  </diagram>
</mxfile>
